{"title":"BUS 174","uid":6901487,"size":1451826528,"categoryP":"video","categoryS":"movies","magnet":"?xt=urn:btih:8dc7f8411d7fb904c290f0a6ebea0dc7dc593468&amp;dn=BUS+174&amp;tr=udp%3A%2F%2Ftracker.openbittorrent.com%3A80&amp;tr=udp%3A%2F%2Fopen.demonii.com%3A1337&amp;tr=udp%3A%2F%2Ftracker.coppersurfer.tk%3A6969&amp;tr=udp%3A%2F%2Fexodus.desync.com%3A6969","seeders":5,"leechers":2,"uploader":"-trueevil-","files":2,"time":1324408134,"description":"English subtitles hardcoded.\n &lt;a href=&quot;\nhttp://www.imdb.com/title/tt0340468/&quot; rel=&quot;nofollow&quot; target=&quot;_NEW&quot;&gt;\nhttp://www.imdb.com/title/tt0340468/&lt;/a&gt;\n\n-\n\nVideo\nID                               : 0\nFormat                           : MPEG-4 Visual\nFormat profile                   : Simple@L3\nFormat settings, BVOP            : No\nFormat settings, QPel            : No\nFormat settings, GMC             : No warppoints\nFormat settings, Matrix          : Default (H.263)\nCodec ID                         : XVID\nCodec ID/Hint                    : XviD\nDuration                         : 1h 58mn\nBit rate                         : 1 500 Kbps\nWidth                            : 624 pixels\nHeight                           : 384 pixels\nDisplay aspect ratio             : 1.625\nFrame rate                       : 23.976 fps\nColor space                      : YUV\nChroma subsampling               : 4:2:0\nBit depth                        : 8 bits\nScan type                        : Progressive\nCompression mode                 : Lossy\nBits/(Pixel*Frame)               : 0.261\nStream size                      : 1.24 GiB (91%)\nWriting library                  : XviD 1.1.0 Beta2 (UTC 2005-04-04)\n\nAudio\nID                               : 1\nFormat                           : MPEG Audio\nFormat version                   : Version 1\nFormat profile                   : Layer 3\nMode                             : Joint stereo\nMode extension                   : MS Stereo\nCodec ID                         : 55\nCodec ID/Hint                    : MP3\nDuration                         : 1h 58mn\nBit rate mode                    : Constant\nBit rate                         : 128 Kbps\nChannel(s)                       : 2 channels\nSampling rate                    : 44.1 KHz\nCompression mode                 : Lossy\nDelay relative to video          : 26ms\nStream size                      : 108 MiB (8%)\nAlignment                        : Split accross interleaves\nInterleave, duration             : 26 ms (0.63 video frame)\n\n\n","torrent":{"xt":"urn:btih:8dc7f8411d7fb904c290f0a6ebea0dc7dc593468","amp;dn":"BUS+174","amp;tr":["udp%3A%2F%2Ftracker.openbittorrent.com%3A80","udp%3A%2F%2Fopen.demonii.com%3A1337","udp%3A%2F%2Ftracker.coppersurfer.tk%3A6969","udp%3A%2F%2Fexodus.desync.com%3A6969"],"infoHash":"8dc7f8411d7fb904c290f0a6ebea0dc7dc593468","infoHashBuffer":{"type":"Buffer","data":[141,199,248,65,29,127,185,4,194,144,240,166,235,234,13,199,220,89,52,104]},"announce":[],"urlList":[]}}